# xmcd
#
# Track frame offsets:
#	150
#	75817
#	128722
#	195625
#	251007
#	274372
#
# Disc length: 3923 seconds
#
# Revision: 0
# Processed by: cddbd v1.4PL0 Copyright (c) Steve Scherf et al.
# Submitted via: dBpowerAMP V4.0
#
DISCID=490f5106
DTITLE=The Beatles - the long and winding Road  1/12
DYEAR=1900
DGENRE=
TTITLE0=Spur1
TTITLE1=Spur2
TTITLE2=Spur3
TTITLE3=Spur4
TTITLE4=Spur5
TTITLE5=Spur6
EXTD=Special Edition
EXTT0=
EXTT1=
EXTT2=
EXTT3=
EXTT4=
EXTT5=
PLAYORDER=
